<svg width="24" height="24" viewBox="0 0 24 24" fill="none" xmlns="http://www.w3.org/2000/svg">
<path d="M6.7381 4.57178C6.05714 4.57178 5.5 5.12892 5.5 5.80987V18.1908C5.5 18.8718 6.05714 19.4289 6.7381 19.4289H17.2619C17.9429 19.4289 18.5 18.8718 18.5 18.1908V5.80987C18.5 5.12892 17.9429 4.57178 17.2619 4.57178H6.7381ZM9.21429 17.5718H7.35714V15.7146H9.21429V17.5718ZM9.21429 15.0956H7.35714V13.2384H9.21429V15.0956ZM9.21429 12.6194H7.35714V10.7623H9.21429V12.6194ZM11.6905 17.5718H9.83333V15.7146H11.6905V17.5718ZM11.6905 15.0956H9.83333V13.2384H11.6905V15.0956ZM11.6905 12.6194H9.83333V10.7623H11.6905V12.6194ZM14.1667 17.5718H12.3095V15.7146H14.1667V17.5718ZM14.1667 15.0956H12.3095V13.2384H14.1667V15.0956ZM14.1667 12.6194H12.3095V10.7623H14.1667V12.6194ZM16.6429 17.5718H14.7857V13.2384H16.6429V17.5718ZM16.6429 12.6194H14.7857V10.7623H16.6429V12.6194ZM16.6429 9.52416H7.35714V6.42892H16.6429V9.52416Z" fill="#49454F"/>
</svg>
