<svg width="25" height="24" viewBox="0 0 25 24" fill="none" xmlns="http://www.w3.org/2000/svg">
<path d="M12.0291 2.85742L19.4317 7.14314V15.7146L12.0291 20.0003L4.62646 15.7146V7.14314L12.0291 2.85742ZM12.0291 13.7665C12.649 13.7665 13.2436 13.5202 13.682 13.0818C14.1204 12.6434 14.3667 12.0488 14.3667 11.4289C14.3667 10.8089 14.1204 10.2143 13.682 9.77587C13.2436 9.33748 12.649 9.09119 12.0291 9.09119C11.4091 9.09119 10.8145 9.33748 10.3761 9.77587C9.93769 10.2143 9.6914 10.8089 9.6914 11.4289C9.6914 12.0488 9.93769 12.6434 10.3761 13.0818C10.8145 13.5202 11.4091 13.7665 12.0291 13.7665Z" fill="#49454F"/>
</svg>
